<?xml version="1.0" encoding="UTF-8"?>
<svg id="email" xmlns="http://www.w3.org/2000/svg" viewBox="0 0 24 24">
    <!-- Outer envelope border -->
    <polygon points="22 5 22 19 21 19 21 20 3 20 3 19 2 19 2 5 3 5 3 4 21 4 21 5 22 5" stroke="#000"
        stroke-width="" />
    <!-- White envelope interior -->
    <polygon fill="#fff" points="21 5 21 19 3 19 3 5 21 5" stroke="#000" stroke-width="1" />
    <!-- White flap interior -->
    <polygon fill="#fff"
        points="4 5 4 6 5 6 5 7 6 7 6 8 7 8 7 9 8 9 8 10 9 10 9 11 10 11 10 12 11 12 11 13 12 13 13 13 13 12 14 12 14 11 15 11 15 10 16 10 16 9 17 9 17 8 18 8 18 7 19 7 19 6 20 6 20 5 4 5"
        stroke="#000" stroke-width="1" />
    <!-- Black flap outline only -->
    <rect x="3" y="5" width="1" height="1" stroke="#000" stroke-width="1" />
    <rect x="4" y="5" width="1" height="1" stroke="#000" stroke-width="1" />
    <rect x="5" y="6" width="1" height="1" stroke="#000" stroke-width="1" />
    <rect x="6" y="7" width="1" height="1" stroke="#000" stroke-width="1" />
    <rect x="7" y="8" width="1" height="1" stroke="#000" stroke-width="1" />
    <rect x="8" y="9" width="1" height="1" stroke="#000" stroke-width="1" />
    <rect x="9" y="10" width="1" height="1" stroke="#000" stroke-width="1" />
    <rect x="10" y="11" width="1" height="1" stroke="#000" stroke-width="1" />
    <rect x="11" y="12" width="1" height="1" stroke="#000" stroke-width="1" />
    <rect x="12" y="13" width="1" height="1" stroke="#000" stroke-width="1" />
    <rect x="13" y="12" width="1" height="1" stroke="#000" stroke-width="1" />
    <rect x="14" y="11" width="1" height="1" stroke="#000" stroke-width="1" />
    <rect x="15" y="10" width="1" height="1" stroke="#000" stroke-width="1" />
    <rect x="16" y="9" width="1" height="1" stroke="#000" stroke-width="1" />
    <rect x="17" y="8" width="1" height="1" stroke="#000" stroke-width="1" />
    <rect x="18" y="7" width="1" height="1" stroke="#000" stroke-width="1" />
    <rect x="19" y="6" width="1" height="1" stroke="#000" stroke-width="1" />
    <rect x="20" y="5" width="1" height="1" stroke="#000" stroke-width="1" />
    <rect x="21" y="5" width="1" height="1" stroke="#000" stroke-width="1" />
</svg>