<?xml version="1.0" encoding="UTF-8"?>
<svg id="document" xmlns="http://www.w3.org/2000/svg" viewBox="0 0 24 24">
    <polygon
        points="18 2 18 3 19 3 19 4 20 4 20 5 21 5 21 6 22 6 22 21 21 21 21 22 3 22 3 21 2 21 2 3 3 3 3 2 18 2" />
    <polygon points="18 2 18 6 22 6 22 5 21 5 21 4 20 4 20 3 19 3 19 2 18 2" />
    <polygon fill="#fff" points="17 3 17 20 4 20 4 3 17 3" />
    <polygon fill="#ccc" points="18 3 18 6 21 6 21 5 20 5 20 4 19 4 19 3 18 3" />
    <rect x="5" y="9" width="6" height="1" />
    <rect x="5" y="11" width="8" height="1" />
    <rect x="5" y="13" width="5" height="1" />
    <rect x="5" y="15" width="7" height="1" />
    <rect x="5" y="17" width="6" height="1" />
</svg>