<svg xmlns="http://www.w3.org/2000/svg" viewBox="0 0 24 24" id="Content-Files-Pdf--Streamline-Pixel"
    height="24" width="24">
    <desc>
        Content Files Pdf Streamline Icon: https://streamlinehq.com
    </desc>
    <title>content-files-pdf</title>
    <g>
        <path
            d="M22.854 4.574999999999999H19.424999999999997V1.1437499999999998h1.1475V0H4.569v9.149999999999999h-1.1400000000000001v1.1400000000000001h1.1400000000000001v2.2874999999999996h-1.1400000000000001v-2.2874999999999996h-1.1400000000000001v9.1425h1.1400000000000001v1.1400000000000001h1.1400000000000001V24H24V3.4312500000000004h-1.1475ZM5.7165 13.713750000000001h3.4275v3.4275h-2.2874999999999996v2.2874999999999996h-1.1400000000000001Zm17.137500000000003 9.1425H5.7165v-2.2874999999999996H19.424999999999997v-1.1400000000000001h1.1475v-5.715H19.424999999999997v-1.1400000000000001H5.7165V1.1437499999999998h12.57v4.5675h4.5675Zm-9.1425 -8.0025v3.435h-1.1400000000000001v1.1400000000000001h-2.2874999999999996v-5.715h2.2874999999999996v1.1400000000000001Zm4.574999999999999 1.1475v1.1400000000000001h-2.2874999999999996v2.2874999999999996h-1.1400000000000001v-5.715h3.4275v1.1400000000000001h-2.2874999999999996v1.1475Z"
            fill="#000000" stroke-width="0.75"></path>
        <path d="M21.714000000000002 2.28375h1.1400000000000001v1.1475h-1.1400000000000001Z"
            fill="#000000" stroke-width="0.75"></path>
        <path
            d="M20.573999999999998 1.1437499999999998h1.1400000000000001v1.1400000000000001h-1.1400000000000001Z"
            fill="#000000" stroke-width="0.75"></path>
        <path d="M11.4315 14.85375h1.1400000000000001v3.435h-1.1400000000000001Z" fill="#000000"
            stroke-width="0.75"></path>
        <path d="M6.8565 14.85375h1.1475v1.1475h-1.1475Z" fill="#000000" stroke-width="0.75"></path>
    </g>
</svg>